<svg width="16" height="16" viewBox="0 0 16 16" fill="none" xmlns="http://www.w3.org/2000/svg">
<g id="nav_icos_abgl">
<path id="Rectangle 7" d="M0 5.33333C0 2.38781 2.38781 0 5.33333 0H10.6667C13.6122 0 16 2.38781 16 5.33333V10.6667C16 13.6122 13.6122 16 10.6667 16H5.33333C2.38781 16 0 13.6122 0 10.6667V5.33333Z" fill="url(#paint0_linear_6583_12664)"/>
<path id="Subtract" opacity="0.5" fill-rule="evenodd" clip-rule="evenodd" d="M8.44454 13.2819C10.0847 12.9275 12.4443 10.8019 12.4443 8.97507V4.5027C12.4466 4.44897 12.4269 4.39647 12.3893 4.35606C12.3517 4.31564 12.2991 4.2904 12.2423 4.28555C10.8542 4.24685 9.5212 3.78262 8.44263 2.96878C8.54955 2.88795 8.65396 2.80368 8.75566 2.71603C8.79177 2.68408 8.83947 2.66636 8.88899 2.6665C8.93915 2.66698 8.98709 2.68615 9.02231 2.71984C10.1497 3.68767 11.6072 4.24306 13.1312 4.28555C13.1879 4.2904 13.2406 4.31564 13.2782 4.35606C13.3158 4.39647 13.3355 4.44897 13.3332 4.5027V8.97507C13.3332 10.9751 10.505 13.3332 8.88899 13.3332C8.74905 13.3332 8.60003 13.3155 8.44454 13.2819Z" fill="white"/>
<path id="Subtract_2" fill-rule="evenodd" clip-rule="evenodd" d="M7.86675 2.71603C7.90285 2.68408 7.95056 2.66636 8.00007 2.6665C8.05024 2.66698 8.09817 2.68615 8.1334 2.71984C9.26077 3.68767 10.7183 4.24306 12.2422 4.28555C12.299 4.2904 12.3517 4.31564 12.3893 4.35606C12.4269 4.39647 12.4466 4.44898 12.4442 4.5027V8.97508C12.4442 10.9751 9.61614 13.3332 8.00007 13.3332C6.38401 13.3332 3.5559 10.9751 3.5559 8.97508V4.5027C3.55426 4.47567 3.5583 4.44861 3.56777 4.42306C3.57725 4.39751 3.59198 4.37397 3.61112 4.3538C3.63026 4.33363 3.65344 4.31721 3.67932 4.3055C3.7052 4.29379 3.73328 4.28701 3.76195 4.28555C5.28533 4.24246 6.74179 3.68556 7.86675 2.71603ZM7.0808 7.0665L9.07474 10.2398L9.93171 8.3046H11.1111V7.5427H9.61212L8.99555 8.93698L6.99878 5.75984L5.93252 8.16746H4.88888V8.92936H6.25212L7.0808 7.0665Z" fill="white"/>
</g>
<defs>
<linearGradient id="paint0_linear_6583_12664" x1="8" y1="0" x2="8" y2="16" gradientUnits="userSpaceOnUse">
<stop stop-color="#9ECF59"/>
<stop offset="1" stop-color="#7DC23E"/>
</linearGradient>
</defs>
</svg>
