<svg width="14" height="14" viewBox="0 0 14 14" fill="none" xmlns="http://www.w3.org/2000/svg">
<g id="&#229;&#133;&#179;&#233;&#151;&#173;">
<path id="Union" fill-rule="evenodd" clip-rule="evenodd" d="M2.05025 10.5356C1.65973 10.9261 1.65973 11.5593 2.05025 11.9498C2.44078 12.3404 3.07394 12.3404 3.46447 11.9498L7 8.41429L10.5355 11.9498C10.9261 12.3404 11.5592 12.3404 11.9497 11.9498C12.3403 11.5593 12.3403 10.9261 11.9497 10.5356L8.41421 7.00008L11.9497 3.46455C12.3403 3.07402 12.3403 2.44086 11.9497 2.05033C11.5592 1.65981 10.9261 1.65981 10.5355 2.05033L7 5.58587L3.46447 2.05033C3.07394 1.65981 2.44078 1.65981 2.05025 2.05033C1.65973 2.44086 1.65973 3.07402 2.05025 3.46455L5.58579 7.00008L2.05025 10.5356Z" fill="#788296" fill-opacity="0.5"/>
</g>
</svg>
