<svg width="24" height="24" viewBox="0 0 24 24" fill="none" xmlns="http://www.w3.org/2000/svg">
<path d="M6.75 6.75C6.75 6.33579 7.08579 6 7.5 6H11.25C11.6642 6 12 6.33579 12 6.75C12 7.16421 11.6642 7.5 11.25 7.5H7.5C7.08579 7.5 6.75 7.16421 6.75 6.75Z" fill="#0A1534"/>
<path d="M7.5 10.5C7.08579 10.5 6.75 10.8358 6.75 11.25C6.75 11.6642 7.08579 12 7.5 12H11.25C11.6642 12 12 11.6642 12 11.25C12 10.8358 11.6642 10.5 11.25 10.5H7.5Z" fill="#0A1534"/>
<path d="M7.5 1.5C5.84315 1.5 4.5 2.84315 4.5 4.5V20.25H3.75C3.33579 20.25 3 20.5858 3 21C3 21.4142 3.33579 21.75 3.75 21.75H20.25C20.6642 21.75 21 21.4142 21 21C21 20.5858 20.6642 20.25 20.25 20.25H19.5V13.0607L20.4697 14.0303C20.7626 14.3232 21.2374 14.3232 21.5303 14.0303C21.8232 13.7374 21.8232 13.2626 21.5303 12.9697L14.25 5.68934V4.5C14.25 2.84315 12.9069 1.5 11.25 1.5H7.5ZM12.75 4.5V20.25H6V4.5C6 3.67157 6.67157 3 7.5 3H11.25C12.0784 3 12.75 3.67157 12.75 4.5ZM14.25 7.81066L18 11.5607V20.25H14.25V7.81066Z" fill="#0A1534"/>
</svg>
