<svg width="25" height="24" viewBox="0 0 25 24" fill="none" xmlns="http://www.w3.org/2000/svg">
<path d="M10.9802 2.79006C11.6991 2.23705 12.7008 2.23705 13.4197 2.79006L21.1697 8.75197C21.6616 9.13057 21.95 9.71616 21.95 10.3369V20.8516C21.95 21.9562 21.0545 22.8516 19.95 22.8516H15.2V18.3516C15.1997 16.6949 13.8567 15.3516 12.2 15.3516C10.5432 15.3516 9.20017 16.6949 9.19995 18.3516V22.8516H4.44995C3.34538 22.8516 2.44995 21.9562 2.44995 20.8516V10.3369C2.44995 9.71616 2.73829 9.13057 3.23022 8.75197L10.9802 2.79006Z" fill="url(#paint0_linear_253_853)"/>
<defs>
<linearGradient id="paint0_linear_253_853" x1="12.2" y1="2.37531" x2="12.2" y2="22.8516" gradientUnits="userSpaceOnUse">
<stop stop-color="#67B9FF"/>
<stop offset="1" stop-color="#008AFF"/>
</linearGradient>
</defs>
</svg>
