<svg width="25" height="24" viewBox="0 0 25 24" fill="none" xmlns="http://www.w3.org/2000/svg">
<path fill-rule="evenodd" clip-rule="evenodd" d="M5.47504 1.5C3.81818 1.5 2.47504 2.84315 2.47504 4.5V12.75H23.475V4.5C23.475 2.84315 22.1319 1.5 20.475 1.5H5.47504ZM23.475 14.25H2.47504V15C2.47504 16.6569 3.81818 18 5.47504 18H20.475C22.1319 18 23.475 16.6569 23.475 15V14.25ZM14.4588 3.00149C14.7703 3.02112 15.0371 3.23165 15.1287 3.53008L16.1492 6.85715H18.975C19.3892 6.85715 19.725 7.19294 19.725 7.60715C19.725 8.02137 19.3892 8.35715 18.975 8.35715H15.5948C15.2653 8.35715 14.9744 8.1421 14.8777 7.82709L14.278 5.87184L12.0532 10.8082C11.9377 11.0644 11.6887 11.2345 11.408 11.249C11.1274 11.2635 10.8622 11.1198 10.721 10.8769L9.41669 8.63266H6.97504C6.56082 8.63266 6.22504 8.29688 6.22504 7.88266C6.22504 7.46845 6.56082 7.13266 6.97504 7.13266H9.84828C10.1155 7.13266 10.3625 7.2748 10.4967 7.50581L11.285 8.8621L13.7279 3.44183C13.8562 3.15725 14.1473 2.98187 14.4588 3.00149ZM8.47504 19.5C7.64661 19.5 6.97504 20.1716 6.97504 21C6.97504 21.8284 7.64661 22.5 8.47504 22.5H17.475C18.3035 22.5 18.975 21.8284 18.975 21C18.975 20.1716 18.3035 19.5 17.475 19.5H8.47504Z" fill="url(#paint0_linear_253_463)"/>
<defs>
<linearGradient id="paint0_linear_253_463" x1="12.975" y1="1.5" x2="12.975" y2="22.5" gradientUnits="userSpaceOnUse">
<stop stop-color="#67B9FF"/>
<stop offset="1" stop-color="#008AFF"/>
</linearGradient>
</defs>
</svg>
