<svg width="25" height="24" viewBox="0 0 25 24" fill="none" xmlns="http://www.w3.org/2000/svg">
<path fill-rule="evenodd" clip-rule="evenodd" d="M20.825 21.352L20.825 10.0906L12.575 3.74448L4.32501 10.0906L4.32501 21.352H20.825ZM3.41045 8.90169C3.04132 9.18564 2.82501 9.62493 2.82501 10.0906V21.352C2.82501 22.1805 3.49659 22.852 4.32501 22.852H20.825C21.6534 22.852 22.325 22.1805 22.325 21.352V10.0906C22.325 9.62493 22.1087 9.18564 21.7396 8.90169L13.4896 2.55554C12.9504 2.14079 12.1996 2.14079 11.6604 2.55554L3.41045 8.90169Z" fill="#0A1534"/>
<path fill-rule="evenodd" clip-rule="evenodd" d="M14.075 21.352V18.352C14.075 17.5236 13.4034 16.852 12.575 16.852C11.7466 16.852 11.075 17.5236 11.075 18.352V21.352H14.075ZM12.575 15.352C10.9182 15.352 9.57501 16.6952 9.57501 18.352V22.852H15.575V18.352C15.575 16.6952 14.2319 15.352 12.575 15.352Z" fill="#0A1534"/>
</svg>
