<svg width="25" height="24" viewBox="0 0 25 24" fill="none" xmlns="http://www.w3.org/2000/svg">
<path d="M8.2749 16.5C7.86069 16.5 7.5249 16.8358 7.5249 17.25C7.5249 17.6642 7.86069 18 8.2749 18H18.7749C19.1891 18 19.5249 17.6642 19.5249 17.25C19.5249 16.8358 19.1891 16.5 18.7749 16.5H8.2749Z" fill="#0A1534"/>
<path fill-rule="evenodd" clip-rule="evenodd" d="M3.3999 2.25C3.3999 1.83579 3.73569 1.5 4.1499 1.5H9.60039C10.4409 1.5 11.0738 1.63342 11.6532 1.96362C12.1702 2.2582 12.6038 2.69217 13.07 3.15883C14.0876 4.17727 15.1057 5.19512 16.1239 6.21298C16.553 6.64197 16.9821 7.07096 17.4112 7.5H19.8999C21.5568 7.5 22.8999 8.84315 22.8999 10.5V18C22.8999 19.6569 21.5568 21 19.8999 21H6.3999C4.74305 21 3.3999 19.6569 3.3999 18V10.5C3.3999 9.7962 3.64226 9.14901 4.04806 8.63732L2.86957 7.45883C2.57668 7.16594 2.57668 6.69106 2.86957 6.39817C3.16247 6.10528 3.63734 6.10528 3.93023 6.39817L8.70323 11.1712C9.14279 11.6107 9.85506 11.6105 10.2941 11.1713L10.2943 11.171C10.7336 10.732 10.7338 10.0198 10.2942 9.5802C9.27763 8.56359 8.26107 7.54698 7.24462 6.53026C6.95177 6.23732 6.95184 5.76245 7.24477 5.4696C7.5377 5.17674 8.01258 5.17681 8.30543 5.46974C8.98204 6.14653 9.65869 6.82328 10.3354 7.5H15.2899L12.0702 4.28033C11.5338 3.74395 11.2373 3.45303 10.9106 3.26688C10.624 3.10358 10.2698 3 9.60049 3H4.1499C3.73569 3 3.3999 2.66421 3.3999 2.25ZM11.735 9C12.3586 10.0117 12.2321 11.3548 11.355 12.2317L11.3547 12.232C10.3297 13.2572 8.66767 13.2569 7.64257 12.2318L5.1231 9.71235C4.98158 9.94127 4.8999 10.2111 4.8999 10.5V18C4.8999 18.8284 5.57148 19.5 6.3999 19.5H19.8999C20.7283 19.5 21.3999 18.8284 21.3999 18V10.5C21.3999 9.67157 20.7283 9 19.8999 9H11.735Z" fill="#0A1534"/>
</svg>
