<svg width="33" height="32" viewBox="0 0 33 32" fill="none" xmlns="http://www.w3.org/2000/svg">
<path fill-rule="evenodd" clip-rule="evenodd" d="M12.8676 2C13.9881 2.00001 14.8318 2.17793 15.6044 2.61816C16.3236 3.02797 16.9218 3.64014 17.5746 4.29297L23.5746 10.293L23.6435 10.3687C23.793 10.552 23.8667 10.776 23.8666 11H26.6C28.2569 11 29.6 12.3431 29.6 14V24C29.6 25.6569 28.2569 27 26.6 27H8.60001C6.94315 27 5.60001 25.6569 5.60001 24V14C5.60001 13.338 5.81448 12.7261 6.17764 12.23L3.89298 9.94531L3.82413 9.86914C3.50384 9.47637 3.52688 8.89686 3.89298 8.53076C4.28347 8.14038 4.91654 8.14038 5.30704 8.53076L11.6713 14.895C12.2574 15.4809 13.2071 15.4806 13.7924 14.895C14.3597 14.328 14.3779 13.4187 13.8456 12.8296C13.3902 12.3498 12.9104 11.8915 12.4428 11.4238L9.65762 8.63086C9.33747 8.23808 9.36044 7.659 9.72647 7.29297C10.0926 6.92692 10.6721 6.90376 11.0649 7.22412L11.1405 7.29297L14.8471 11H21.4535L16.1606 5.70703C15.4454 4.99186 15.0497 4.60415 14.6142 4.35596C14.2321 4.13824 13.7599 4.00001 12.8676 4H5.60001C5.04772 4 4.60001 3.55228 4.60001 3C4.60001 2.44772 5.04772 2 5.60001 2H12.8676ZM11.1 22C10.5477 22 10.1 22.4477 10.1 23C10.1 23.5523 10.5477 24 11.1 24H25.1C25.6523 24 26.1 23.5523 26.1 23C26.1 22.4477 25.6523 22 25.1 22H11.1Z" fill="url(#paint0_linear_294_1391)"/>
<defs>
<linearGradient id="paint0_linear_294_1391" x1="16.6" y1="2" x2="16.6" y2="27" gradientUnits="userSpaceOnUse">
<stop stop-color="#67B9FF"/>
<stop offset="1" stop-color="#008AFF"/>
</linearGradient>
</defs>
</svg>
