<svg width="25" height="24" viewBox="0 0 25 24" fill="none" xmlns="http://www.w3.org/2000/svg">
<path d="M12.8 1.5C16.1138 1.5 18.8 4.18629 18.8 7.5C18.8 10.8137 16.1138 13.5 12.8 13.5C9.48634 13.5 6.80005 10.8137 6.80005 7.5C6.80005 4.18629 9.48634 1.5 12.8 1.5ZM12.8 3C10.3148 3 8.30005 5.01472 8.30005 7.5C8.30005 9.98528 10.3148 12 12.8 12C15.2853 12 17.3 9.98528 17.3 7.5C17.3 5.01472 15.2853 3 12.8 3Z" fill="#0A1534"/>
<path fill-rule="evenodd" clip-rule="evenodd" d="M5.90576 14.8557C7.73424 13.0272 10.2142 12 12.8 12C15.3859 12 17.8659 13.0272 19.6943 14.8557C21.5228 16.6842 22.55 19.1641 22.55 21.75C22.55 22.1642 22.2143 22.5 21.8 22.5C21.3858 22.5 21.05 22.1642 21.05 21.75C21.05 19.562 20.1809 17.4635 18.6337 15.9164C17.0865 14.3692 14.9881 13.5 12.8 13.5C10.612 13.5 8.51359 14.3692 6.96642 15.9164C5.41924 17.4635 4.55005 19.562 4.55005 21.75C4.55005 22.1642 4.21426 22.5 3.80005 22.5C3.38584 22.5 3.05005 22.1642 3.05005 21.75C3.05005 19.1641 4.07728 16.6842 5.90576 14.8557Z" fill="#0A1534"/>
</svg>
