<svg width="33" height="32" viewBox="0 0 33 32" fill="none" xmlns="http://www.w3.org/2000/svg">
<path d="M13.2 18.0002C13.7523 18.0002 14.2 18.4479 14.2 19.0002C14.1999 19.5524 13.7522 20.0002 13.2 20.0002H11.2C10.6478 20.0002 10.2001 19.5524 10.2 19.0002C10.2 18.4479 10.6477 18.0002 11.2 18.0002H13.2Z" fill="url(#paint0_linear_293_1370)"/>
<path d="M13.2 14.0002C13.7523 14.0002 14.2 14.4479 14.2 15.0002C14.1999 15.5524 13.7522 16.0002 13.2 16.0002H11.2C10.6478 16.0002 10.2001 15.5524 10.2 15.0002C10.2 14.4479 10.6477 14.0002 11.2 14.0002H13.2Z" fill="url(#paint1_linear_293_1370)"/>
<path fill-rule="evenodd" clip-rule="evenodd" d="M16.7151 2.12522C17.033 1.94902 17.4215 1.95949 17.7298 2.15208L25.7298 7.15208C26.0222 7.33482 26.2 7.65543 26.2 8.00022V28.0002H27.2C27.7523 28.0002 28.2 28.4479 28.2 29.0002C28.1999 29.5524 27.7522 30.0002 27.2 30.0002H5.2C4.64778 30.0002 4.2001 29.5524 4.2 29.0002C4.2 28.4479 4.64772 28.0002 5.2 28.0002H6.2V12.0002C6.2 11.6215 6.414 11.2751 6.75274 11.1057L16.2 6.38206V3.00022C16.2 2.6367 16.3972 2.30145 16.7151 2.12522ZM8.2 12.6179V28.0002H16.2V8.6179L8.2 12.6179ZM21.2 16.0002C20.6477 16.0002 20.2 16.4479 20.2 17.0002V21.0002C20.2001 21.5524 20.6478 22.0002 21.2 22.0002C21.7522 22.0002 22.1999 21.5524 22.2 21.0002V17.0002C22.2 16.4479 21.7523 16.0002 21.2 16.0002ZM21.2 10.0002C20.6477 10.0002 20.2 10.4479 20.2 11.0002V13.0002C20.2001 13.5524 20.6478 14.0002 21.2 14.0002C21.7522 14.0002 22.1999 13.5524 22.2 13.0002V11.0002C22.2 10.4479 21.7523 10.0002 21.2 10.0002Z" fill="url(#paint2_linear_293_1370)"/>
<defs>
<linearGradient id="paint0_linear_293_1370" x1="16.2" y1="2" x2="16.2" y2="30.0002" gradientUnits="userSpaceOnUse">
<stop stop-color="#67B9FF"/>
<stop offset="1" stop-color="#008AFF"/>
</linearGradient>
<linearGradient id="paint1_linear_293_1370" x1="16.2" y1="2" x2="16.2" y2="30.0002" gradientUnits="userSpaceOnUse">
<stop stop-color="#67B9FF"/>
<stop offset="1" stop-color="#008AFF"/>
</linearGradient>
<linearGradient id="paint2_linear_293_1370" x1="16.2" y1="2" x2="16.2" y2="30.0002" gradientUnits="userSpaceOnUse">
<stop stop-color="#67B9FF"/>
<stop offset="1" stop-color="#008AFF"/>
</linearGradient>
</defs>
</svg>
