<svg width="25" height="24" viewBox="0 0 25 24" fill="none" xmlns="http://www.w3.org/2000/svg">
<path d="M14.7536 5.03008C14.6621 4.73165 14.3953 4.52112 14.0837 4.50149C13.7722 4.48187 13.4811 4.65725 13.3528 4.94183L10.9099 10.3621L10.1217 9.00581C9.98741 8.7748 9.7404 8.63266 9.47322 8.63266H6.59998C6.18576 8.63266 5.84998 8.96845 5.84998 9.38266C5.84998 9.79688 6.18576 10.1327 6.59998 10.1327H9.04163L10.3459 12.3769C10.4871 12.6198 10.7523 12.7635 11.033 12.749C11.3136 12.7345 11.5626 12.5644 11.6781 12.3082L13.9029 7.37184L14.5027 9.32709C14.5993 9.6421 14.8902 9.85715 15.2197 9.85715H18.6C19.0142 9.85715 19.35 9.52137 19.35 9.10715C19.35 8.69294 19.0142 8.35715 18.6 8.35715H15.7741L14.7536 5.03008Z" fill="#0A1534"/>
<path fill-rule="evenodd" clip-rule="evenodd" d="M23.1 4.5C23.1 2.84315 21.7568 1.5 20.1 1.5H5.09998C3.44312 1.5 2.09998 2.84315 2.09998 4.5V16.5C2.09998 18.1569 3.44312 19.5 5.09998 19.5H20.1C21.7568 19.5 23.1 18.1569 23.1 16.5V4.5ZM5.09998 3H20.1C20.9284 3 21.6 3.67157 21.6 4.5V14.25H3.59998V4.5C3.59998 3.67157 4.27155 3 5.09998 3ZM3.59998 16.5V15.75H21.6V16.5C21.6 17.3284 20.9284 18 20.1 18H5.09998C4.27155 18 3.59998 17.3284 3.59998 16.5Z" fill="#0A1534"/>
<path d="M8.84998 21C8.43576 21 8.09998 21.3358 8.09998 21.75C8.09998 22.1642 8.43576 22.5 8.84998 22.5H16.35C16.7642 22.5 17.1 22.1642 17.1 21.75C17.1 21.3358 16.7642 21 16.35 21H8.84998Z" fill="#0A1534"/>
</svg>
