<svg width="16" height="16" viewBox="0 0 16 16" fill="none" xmlns="http://www.w3.org/2000/svg">
<g id="nav_icos_mryd">
<path id="Rectangle 7" d="M0 5.33333C0 2.38781 2.38781 0 5.33333 0H10.6667C13.6122 0 16 2.38781 16 5.33333V10.6667C16 13.6122 13.6122 16 10.6667 16H5.33333C2.38781 16 0 13.6122 0 10.6667V5.33333Z" fill="url(#paint0_linear_6685_69114)"/>
<path id="Subtract" opacity="0.5" fill-rule="evenodd" clip-rule="evenodd" d="M12.1588 2.99819C12.1588 2.99819 12.1588 3.07026 12.0935 3.13513C12.0935 3.13513 11.5192 4.32362 11.1813 5.02032C11.4113 5.1531 11.6331 5.31533 11.8296 5.5135C11.8296 5.52071 12.9824 3.13513 12.9824 3.13513C13.0476 3.07026 13.0476 2.99819 13.0476 2.99819C13.0476 2.86125 12.9099 2.72431 12.7794 2.72431H11.8905C12.021 2.72431 12.1588 2.86125 12.1588 2.99819ZM10.9029 5.47608C10.9156 5.48841 10.9282 5.50088 10.9408 5.5135C10.9408 5.51382 10.943 5.50952 10.9472 5.50099C12.2078 6.21953 13.0476 7.574 13.0476 9.14285C13.0476 11.4749 11.1918 13.3333 8.85716 13.3333C8.70691 13.3333 8.55864 13.3256 8.41272 13.3106C10.5341 13.0922 12.1588 11.3248 12.1588 9.14285C12.1588 6.96085 10.5341 5.19354 8.41272 4.97509C8.55864 4.96007 8.70691 4.95237 8.85716 4.95237C9.60288 4.95237 10.2998 5.14198 10.9029 5.47608ZM8.41454 4.09657L8.23653 4.42521C8.23653 4.42521 8.32205 4.4285 8.46617 4.44525C8.05868 4.49426 6.72849 4.70649 5.87743 5.45585L5.66077 5.00599C6.61463 4.51542 7.70003 4.43242 7.70003 4.43242L6.88804 2.86846C6.88804 2.73152 6.75029 2.66666 6.61979 2.66666H7.50867C7.63917 2.66666 7.77692 2.73152 7.77692 2.86846L8.41454 4.09657Z" fill="white"/>
<g id="Vector">
<path d="M7.96831 4.95237C5.63372 4.95237 3.77783 6.81076 3.77783 9.14285C3.77783 11.4749 5.63372 13.3333 7.96831 13.3333C10.3029 13.3333 12.1588 11.4749 12.1588 9.14285C12.1588 6.81076 10.3029 4.95237 7.96831 4.95237ZM10.1041 8.73473L9.27921 9.55825L9.48542 10.7243C9.5517 11.1397 9.34549 11.2782 8.99936 11.0668L7.96831 10.5129L6.93726 11.0668C6.59112 11.2709 6.38491 11.0668 6.45119 10.7243L6.6574 9.55825L5.84729 8.73473C5.5748 8.4578 5.64108 8.18086 6.0535 8.11527L7.15083 7.9768L7.6369 6.94922C7.77683 6.6067 8.04932 6.6067 8.25553 6.94922L8.74159 7.9768L9.90521 8.11527C10.3029 8.25374 10.4355 8.4578 10.1041 8.73473Z" fill="white"/>
<path d="M12.0935 3.13512C12.1588 3.07026 12.1588 2.99819 12.1588 2.99819C12.1588 2.86125 12.021 2.72431 11.8905 2.72431H9.3168C9.17905 2.72431 9.04855 2.78918 9.04855 2.92612L8.23656 4.42521C8.23656 4.42521 9.9258 4.49008 10.9408 5.5135C10.9408 5.52071 12.0935 3.13512 12.0935 3.13512ZM7.70006 4.43242L6.88806 2.86846C6.88806 2.73152 6.75031 2.66666 6.61982 2.66666H4.11858C3.91558 2.66666 3.77783 2.80359 3.77783 2.94053C3.77783 3.0054 3.77783 3.07747 3.84308 3.07747L4.98857 5.45585C6.00357 4.56215 7.70006 4.43242 7.70006 4.43242Z" fill="white"/>
</g>
</g>
<defs>
<linearGradient id="paint0_linear_6685_69114" x1="8" y1="0" x2="8" y2="16" gradientUnits="userSpaceOnUse">
<stop stop-color="#FFB571"/>
<stop offset="1" stop-color="#FF8832"/>
</linearGradient>
</defs>
</svg>
