<svg width="18" height="18" viewBox="0 0 18 18" fill="none" xmlns="http://www.w3.org/2000/svg">
<path d="M9.96289 0.195433C10.1056 0.167226 10.2533 0.182641 10.3877 0.238401C10.6628 0.352521 10.8418 0.620546 10.8418 0.918089V17.0812C10.8416 17.4879 10.5122 17.818 10.1055 17.8185C9.9132 17.8184 9.72821 17.743 9.59082 17.6085L4.84473 12.9698H1.73047C0.775701 12.9687 0.00126142 12.1953 0 11.2404V6.86047C0.000682357 5.9054 0.775169 5.13091 1.73047 5.13H4.84277L9.58496 0.397581C9.68799 0.294601 9.82001 0.223775 9.96289 0.195433ZM14.3154 2.52746C14.567 2.26976 14.9793 2.26151 15.2402 2.50989C17.0036 4.2273 17.9983 6.5842 18 9.04602C18.0007 10.2645 17.7569 11.4709 17.2842 12.5939C16.8114 13.7168 16.1189 14.734 15.2471 15.5851C15.1243 15.7054 14.959 15.7728 14.7871 15.7726C14.6565 15.7725 14.5283 15.7332 14.4199 15.6603C14.3118 15.5874 14.228 15.4841 14.1787 15.3634C14.0778 15.1159 14.1362 14.8316 14.3271 14.6447C15.8452 13.1603 16.6816 11.1735 16.6816 9.0509C16.6816 6.92601 15.843 4.93723 14.3213 3.45227C14.0666 3.19755 14.0639 2.78517 14.3154 2.52746ZM12.2695 4.61828C12.5233 4.35868 12.9395 4.35402 13.1992 4.60754C13.7868 5.18193 14.2552 5.86773 14.5762 6.62414C14.897 7.38045 15.0646 8.19324 15.0693 9.01477C15.0788 10.6746 14.4235 12.2689 13.25 13.4425C13.1272 13.5658 12.9603 13.6348 12.7861 13.6349C12.6561 13.635 12.5291 13.5966 12.4209 13.5245C12.3127 13.4523 12.2275 13.3498 12.1777 13.2296C12.1279 13.1095 12.1154 12.9772 12.1406 12.8497C12.166 12.7222 12.2285 12.6048 12.3203 12.5128C12.7781 12.0548 13.1406 11.5103 13.3867 10.9113C13.6328 10.3121 13.7577 9.66931 13.7539 9.0216C13.7501 8.37415 13.6181 7.73384 13.3652 7.13782C13.1123 6.54174 12.7434 6.00154 12.2803 5.54895C12.0205 5.29488 12.0155 4.87803 12.2695 4.61828Z" fill="url(#paint0_linear_7357_10927)"/>
<defs>
<linearGradient id="paint0_linear_7357_10927" x1="9" y1="0.181641" x2="9" y2="17.8185" gradientUnits="userSpaceOnUse">
<stop stop-color="#008AFF" stop-opacity="0.48"/>
<stop offset="1" stop-color="#008AFF"/>
</linearGradient>
</defs>
</svg>
