<svg width="16" height="16" viewBox="0 0 16 16" fill="none" xmlns="http://www.w3.org/2000/svg">
<g id="nav_icos_target">
<path id="Rectangle 7" d="M0 5.33333C0 2.38781 2.38781 0 5.33333 0H10.6667C13.6122 0 16 2.38781 16 5.33333V10.6667C16 13.6122 13.6122 16 10.6667 16H5.33333C2.38781 16 0 13.6122 0 10.6667V5.33333Z" fill="url(#paint0_linear_6685_70991)"/>
<path id="Vector" d="M3.63905 8.269H3.56905C3.3651 8.269 3.1695 8.18798 3.02528 8.04377C2.88107 7.89955 2.80005 7.70395 2.80005 7.5C2.80005 7.29605 2.88107 7.10045 3.02528 6.95623C3.1695 6.81202 3.3651 6.731 3.56905 6.731H3.63905C3.79504 5.88889 4.20274 5.11388 4.80834 4.50829C5.41393 3.90269 6.18894 3.49499 7.03105 3.339V3.269C7.03105 3.06505 7.11207 2.86945 7.25628 2.72523C7.4005 2.58102 7.5961 2.5 7.80005 2.5C8.004 2.5 8.1996 2.58102 8.34381 2.72523C8.48803 2.86945 8.56905 3.06505 8.56905 3.269V3.339C9.41116 3.49499 10.1862 3.90269 10.7918 4.50829C11.3974 5.11388 11.8051 5.88889 11.961 6.731H12.031C12.235 6.731 12.4306 6.81202 12.5748 6.95623C12.719 7.10045 12.8 7.29605 12.8 7.5C12.8 7.70395 12.719 7.89955 12.5748 8.04377C12.4306 8.18798 12.235 8.269 12.031 8.269H11.961C11.8051 9.11111 11.3974 9.88612 10.7918 10.4917C10.1862 11.0973 9.41116 11.505 8.56905 11.661V11.731C8.56905 11.935 8.48803 12.1305 8.34381 12.2748C8.1996 12.419 8.004 12.5 7.80005 12.5C7.5961 12.5 7.4005 12.419 7.25628 12.2748C7.11207 12.1305 7.03105 11.935 7.03105 11.731V11.661C6.18894 11.505 5.41393 11.0973 4.80834 10.4917C4.20274 9.88612 3.79504 9.11111 3.63905 8.269ZM7.80005 9.8075C8.25643 9.8075 8.70256 9.67217 9.08203 9.41862C9.46149 9.16507 9.75725 8.80468 9.9319 8.38304C10.1066 7.9614 10.1522 7.49744 10.0632 7.04983C9.97418 6.60222 9.75441 6.19106 9.4317 5.86835C9.10899 5.54564 8.69783 5.32587 8.25022 5.23684C7.80261 5.1478 7.33865 5.1935 6.91701 5.36815C6.49537 5.5428 6.13498 5.83856 5.88143 6.21802C5.62788 6.59749 5.49255 7.04362 5.49255 7.5C5.49255 8.11199 5.73566 8.69891 6.1684 9.13165C6.60114 9.56439 7.18806 9.8075 7.80005 9.8075ZM7.80005 9.0385C7.39201 9.0385 7.00069 8.87641 6.71217 8.58788C6.42364 8.29936 6.26155 7.90804 6.26155 7.5C6.26155 7.09196 6.42364 6.70064 6.71217 6.41212C7.00069 6.12359 7.39201 5.9615 7.80005 5.9615C8.20808 5.9615 8.59941 6.12359 8.88793 6.41212C9.17646 6.70064 9.33855 7.09196 9.33855 7.5C9.33855 7.90804 9.17646 8.29936 8.88793 8.58788C8.59941 8.87641 8.20808 9.0385 7.80005 9.0385Z" fill="white"/>
<path id="Subtract" opacity="0.5" fill-rule="evenodd" clip-rule="evenodd" d="M4.36898 8.269H4.43898C4.59497 9.11111 5.00267 9.88612 5.60826 10.4917C6.21386 11.0973 6.98886 11.505 7.83098 11.661V11.731C7.83098 11.935 7.91199 12.1305 8.05621 12.2748C8.20043 12.419 8.39602 12.5 8.59998 12.5C8.80393 12.5 8.99953 12.419 9.14374 12.2748C9.28796 12.1305 9.36898 11.935 9.36898 11.731V11.661C10.2111 11.505 10.9861 11.0973 11.5917 10.4917C12.1973 9.88612 12.605 9.11111 12.761 8.269H12.831C13.0349 8.269 13.2305 8.18798 13.3747 8.04377C13.519 7.89955 13.6 7.70395 13.6 7.5C13.6 7.29605 13.519 7.10045 13.3747 6.95623C13.2305 6.81202 13.0349 6.731 12.831 6.731H12.761C12.605 5.88889 12.1973 5.11388 11.5917 4.50829C10.9861 3.90269 10.2111 3.49499 9.36898 3.339V3.269C9.36898 3.06505 9.28796 2.86945 9.14374 2.72523C8.99953 2.58102 8.80393 2.5 8.59998 2.5C8.39602 2.5 8.20043 2.58102 8.05621 2.72523C7.91199 2.86945 7.83098 3.06505 7.83098 3.269V3.339C6.98886 3.49499 6.21386 3.90269 5.60826 4.50829C5.00267 5.11388 4.59497 5.88889 4.43898 6.731H4.36898C4.16502 6.731 3.96943 6.81202 3.82521 6.95623C3.681 7.10045 3.59998 7.29605 3.59998 7.5C3.59998 7.70395 3.681 7.89955 3.82521 8.04377C3.96943 8.18798 4.16502 8.269 4.36898 8.269ZM9.09854 5.247C8.71644 5.02629 8.27296 4.9 7.79998 4.9C6.36404 4.9 5.19998 6.06406 5.19998 7.5C5.19998 8.93594 6.36404 10.1 7.79998 10.1C8.27296 10.1 8.71644 9.9737 9.09854 9.753C9.37676 9.69143 9.64262 9.57854 9.88195 9.41862C10.2614 9.16507 10.5572 8.80468 10.7318 8.38304C10.9065 7.9614 10.9522 7.49744 10.8631 7.04983C10.7741 6.60222 10.5543 6.19106 10.2316 5.86835C9.92058 5.55731 9.52737 5.34189 9.09854 5.247Z" fill="white"/>
</g>
<defs>
<linearGradient id="paint0_linear_6685_70991" x1="8" y1="0" x2="8" y2="16" gradientUnits="userSpaceOnUse">
<stop stop-color="#FFE586"/>
<stop offset="1" stop-color="#FFC900"/>
</linearGradient>
</defs>
</svg>
