<?xml version="1.0" encoding="utf-8"?>
<!-- Generator: Adobe Illustrator 25.4.1, SVG Export Plug-In . SVG Version: 6.00 Build 0)  -->
<svg version="1.1" id="图层_1" xmlns="http://www.w3.org/2000/svg" xmlns:xlink="http://www.w3.org/1999/xlink" x="0px" y="0px"
	 viewBox="0 0 100 100" style="enable-background:new 0 0 100 100;" xml:space="preserve">
<style type="text/css">
	.st0{fill:#4C4C4C;}
	.st1{fill:none;}
</style>
<path class="st0" d="M67.2,55.7c8-5.4,13.3-14.6,13.3-25c0-16.8-13.9-30.6-31.1-30.6c-17.1,0-30.9,13.7-30.9,30.4
	c0,10.4,5.3,19.6,13.3,25C13.8,62.6,1.1,79.7,1.1,99.8h8.7c0-20,15.4-36.4,35.1-38.7c0.2,0,5.5-0.4,9.9,0h0.4
	c19.2,2.7,34,18.9,34,38.7h8.9C97.9,79.9,85.2,62.6,67.2,55.7L67.2,55.7z M49.5,53.4c-12.9,0-23.2-10.2-23.2-22.9
	c0-12.7,10.4-22.9,23.2-22.9c12.9,0,23.2,10.2,23.2,22.9C72.7,43.3,62.4,53.4,49.5,53.4L49.5,53.4z M49.5,53.4"/>
<rect x="1.1" y="0.2" class="st1" width="97.1" height="99.8"/>
</svg>
