<svg width="12" height="208" viewBox="0 0 12 208" fill="none" xmlns="http://www.w3.org/2000/svg">
<path d="M6.66667 176.8C6.66667 184.704 7.0303 190.944 7.87879 195.936C8.72727 200.512 10.0606 203.008 12 203.008V208C9.57576 208 7.75757 205.504 6.54545 200.096C5.45454 195.104 4.84849 185.536 4.84849 172.224V132.704C4.84849 125.216 4.60606 119.392 4 114.816C3.39394 110.24 2.06061 107.744 0 106.912V101.504C1.93939 100.672 3.15152 98.176 3.87879 94.432C4.60606 90.688 4.84849 84.448 4.84849 76.128V36.192C4.84849 22.464 5.45454 13.312 6.54545 7.904C7.75757 2.496 9.57576 0 12 0V5.408C10.0606 5.408 8.72727 7.488 7.87879 12.064C7.0303 16.224 6.66667 22.88 6.66667 31.616V77.376C6.66667 87.36 6.18182 94.016 5.09091 97.76C4 101.504 2.90909 103.168 1.69697 103.168V104.832C3.0303 104.832 4.12121 106.912 5.09091 111.488C6.06061 115.648 6.54545 122.304 6.54545 131.04V176.8H6.66667Z" fill="#008AFF"/>
</svg>
