<svg width="17" height="16" viewBox="0 0 17 16" fill="none" xmlns="http://www.w3.org/2000/svg">
<g id="nav_icos_znsg">
<path id="Rectangle 7" d="M0.5 5.33333C0.5 2.38781 2.88781 0 5.83333 0H11.1667C14.1122 0 16.5 2.38781 16.5 5.33333V10.6667C16.5 13.6122 14.1122 16 11.1667 16H5.83333C2.88781 16 0.5 13.6122 0.5 10.6667V5.33333Z" fill="url(#paint0_linear_6583_17679)"/>
<rect id="Rectangle 304" opacity="0.3" x="5.7063" y="11.9365" width="5.5873" height="1.39683" rx="0.698413" fill="white"/>
<g id="Subtract">
<path fill-rule="evenodd" clip-rule="evenodd" d="M3.61108 5.33344C3.61108 4.3516 4.40702 3.55566 5.38886 3.55566H11.6111C12.5929 3.55566 13.3889 4.3516 13.3889 5.33344V8.7937H3.61108V5.33344ZM9.50273 4.50092C9.46011 4.36197 9.33588 4.26395 9.19083 4.25481C9.04578 4.24567 8.91023 4.32733 8.85051 4.45984L7.71306 6.98356L7.34605 6.35206C7.28354 6.2445 7.16853 6.17832 7.04413 6.17832H5.70632C5.51346 6.17832 5.35712 6.33466 5.35712 6.52752C5.35712 6.72038 5.51346 6.87673 5.70632 6.87673H6.84318L7.45046 7.92165C7.5162 8.03478 7.63968 8.10166 7.77036 8.09493C7.90103 8.08819 8.01698 8.00896 8.07074 7.88967L9.10664 5.59127L9.38588 6.50165C9.43087 6.64832 9.56632 6.74845 9.71974 6.74845H11.2936C11.4865 6.74845 11.6428 6.5921 11.6428 6.39924C11.6428 6.20638 11.4865 6.05004 11.2936 6.05004H9.97789L9.50273 4.50092Z" fill="white"/>
<path d="M3.61136 9.49211H13.3886C13.3717 10.4593 12.5823 11.2382 11.6111 11.2382H5.38886C4.41761 11.2382 3.62827 10.4593 3.61136 9.49211Z" fill="white"/>
</g>
</g>
<defs>
<linearGradient id="paint0_linear_6583_17679" x1="8.5" y1="0" x2="8.5" y2="16" gradientUnits="userSpaceOnUse">
<stop stop-color="#3EDCFF"/>
<stop offset="1" stop-color="#1CA8F8"/>
</linearGradient>
</defs>
</svg>
