<?xml version="1.0" encoding="utf-8"?>
<!-- Generator: Adobe Illustrator 25.4.1, SVG Export Plug-In . SVG Version: 6.00 Build 0)  -->
<svg version="1.1" id="图层_1" xmlns="http://www.w3.org/2000/svg" xmlns:xlink="http://www.w3.org/1999/xlink" x="0px" y="0px"
	 viewBox="0 0 100 100" style="enable-background:new 0 0 100 100;" xml:space="preserve">
<style type="text/css">
	.st0{fill:none;}
	.st1{fill:#4C4C4C;}
</style>
<rect x="1.1" y="0.2" class="st0" width="97.1" height="99.8"/>
<path class="st1" d="M1.5,25.8c-2.2,12.9,6.4,25.2,19.3,27.6c5.4,0.9,10.7-0.1,15.2-2.4l39.2,42.3c1.7,1.8,4.2,1.9,6.1,0.5l0.2-0.2
	c0.1-0.1,0.2-0.2,0.3-0.3l17.2-17.1c1.2-1.1,0.5-3.6-1.4-5.5c-2-2-4.4-2.6-5.6-1.6l-14.1,14l-11.9-13l10.9-10.4
	c1.1-1.2,0.7-3.5-1.1-5.3c-1.8-1.9-4.1-2.3-5.3-1.3L59.7,63.4L42.8,45.5c2.7-3.1,4.7-7,5.5-11.4c2.2-12.9-6.5-25.2-19.4-27.5
	C16,4.3,3.7,12.9,1.5,25.8L1.5,25.8z M27.6,14.4c8.6,1.5,14.4,9.7,12.9,18.3c-0.7,3.6-2.5,6.7-5,9c-0.5,0.2-1,0.5-1.4,0.9
	c-0.2,0.2-0.4,0.4-0.6,0.7c-3.3,2.1-7.3,3-11.4,2.3C13.5,44,7.7,35.8,9.3,27.2C10.7,18.6,19,12.8,27.6,14.4L27.6,14.4z M27.6,14.4"
	/>
<rect x="1.1" y="6.2" class="st0" width="98.5" height="88.6"/>
</svg>
