<svg width="16" height="16" viewBox="0 0 16 16" fill="none" xmlns="http://www.w3.org/2000/svg">
<g id="ico_gotop">
<g id="Vector">
<path fill-rule="evenodd" clip-rule="evenodd" d="M7.64645 4.14645C7.84171 3.95118 8.15829 3.95118 8.35355 4.14645L12.8536 8.64645C13.0488 8.84171 13.0488 9.15829 12.8536 9.35355C12.6583 9.54882 12.3417 9.54882 12.1464 9.35355L8.5 5.70711V12.5C8.5 12.7761 8.27614 13 8 13C7.72386 13 7.5 12.7761 7.5 12.5V5.70711L3.85355 9.35355C3.65829 9.54882 3.34171 9.54882 3.14645 9.35355C2.95118 9.15829 2.95118 8.84171 3.14645 8.64645L7.64645 4.14645Z" fill="#646E7D" fill-opacity="0.6"/>
<path fill-rule="evenodd" clip-rule="evenodd" d="M3.5 3.5C3.5 3.22386 3.72386 3 4 3H12C12.2761 3 12.5 3.22386 12.5 3.5C12.5 3.77614 12.2761 4 12 4H4C3.72386 4 3.5 3.77614 3.5 3.5Z" fill="#646E7D" fill-opacity="0.6"/>
</g>
</g>
</svg>
